<svg xmlns="http://www.w3.org/2000/svg" viewBox="0 0 64 64" width="64" height="64">
  <defs>
    <radialGradient id="g" cx="38%" cy="32%" r="75%">
      <stop offset="0" stop-color="#fff6c4"/>
      <stop offset="0.45" stop-color="#ffd23f"/>
      <stop offset="1" stop-color="#e09200"/>
    </radialGradient>
    <linearGradient id="rim" x1="0" y1="0" x2="0" y2="1">
      <stop offset="0" stop-color="#ffe98a"/>
      <stop offset="1" stop-color="#b86e00"/>
    </linearGradient>
  </defs>
  <circle cx="32" cy="32" r="31" fill="url(#rim)"/>
  <circle cx="32" cy="32" r="26.5" fill="url(#g)" stroke="#c98300" stroke-width="1.5"/>
  <g fill="#1d4fa8" transform="translate(13 20.2) scale(0.95)"><path d="M39.3884 2.03184C40.4043 1.56394 40.0802 0 38.967 0H19.9199C14.4163 0 9.78699 3.85968 8.44412 9.09388H8.45669C8.29474 9.71071 8.1768 10.3454 8.10919 10.9962C8.06988 11.3993 8.04944 11.8073 8.04944 12.2218V12.6443C8.08246 13.8764 8.29002 15.0631 8.65012 16.1803L11.6661 14.7911L14.1599 13.6433L13.0152 12.4646L19.9921 5.28115L23.8023 9.20397L25.5209 8.41229L30.3593 6.18455L39.3869 2.0286L39.3884 2.03184Z"/><path d="M19.9903 8.02686L15.6819 12.4629L16.001 12.7932L21.9559 10.0522L19.9903 8.02686Z"/><path d="M0.611931 22.9281C-0.403873 23.3961 -0.0799483 24.96 1.03335 24.96H20.0805C25.5856 24.96 30.215 21.1003 31.5563 15.8661H31.5436C31.7056 15.2492 31.8236 14.6146 31.8911 13.9638C31.9305 13.5607 31.9508 13.1527 31.9508 12.7382V12.3157C31.9178 11.0836 31.7104 9.8969 31.3502 8.77979L28.3342 10.1689L25.8404 11.3167L26.985 12.4954L20.0082 19.6788L16.198 15.756L14.4794 16.5477L9.64095 18.7754L0.611931 22.9281Z"/><path d="M20.0069 16.9274L24.3155 12.4914L23.9947 12.1611L18.0414 14.9021L20.0069 16.9274Z"/><path d="M19.9904 8.03271L15.6819 12.4688L19.9904 16.9049L24.299 12.4688L19.9904 8.03271Z"/></g>
  <path d="M14 22 A21 21 0 0 1 30 10" fill="none" stroke="#fff" stroke-opacity=".7" stroke-width="3" stroke-linecap="round"/>
</svg>
